<?xml version="1.0" encoding="UTF-8" standalone="no"?>
<!-- Created with Inkscape (http://www.inkscape.org/) -->

<svg
   xmlns:dc="http://purl.org/dc/elements/1.1/"
   xmlns:cc="http://creativecommons.org/ns#"
   xmlns:rdf="http://www.w3.org/1999/02/22-rdf-syntax-ns#"
   xmlns:svg="http://www.w3.org/2000/svg"
   xmlns="http://www.w3.org/2000/svg"
   xmlns:sodipodi="http://sodipodi.sourceforge.net/DTD/sodipodi-0.dtd"
   xmlns:inkscape="http://www.inkscape.org/namespaces/inkscape"
   inkscape:version="0.91 r13725"
   version="1.1"
   id="svg2"
   viewBox="0 0 744.09448819 1052.3622047"
   height="297mm"
   width="210mm"
   sodipodi:docname="kcrm_settings.svg">
  <sodipodi:namedview
     inkscape:window-maximized="1"
     inkscape:window-y="0"
     inkscape:window-x="0"
     inkscape:window-height="667"
     inkscape:window-width="1366"
     showgrid="false"
     inkscape:current-layer="svg2"
     inkscape:document-units="px"
     inkscape:cy="384.28571"
     inkscape:cx="56.661792"
     inkscape:zoom="11.2"
     inkscape:pageshadow="2"
     inkscape:pageopacity="0.0"
     borderopacity="1.0"
     bordercolor="#666666"
     pagecolor="#ffffff"
     id="base" />
  <defs
     id="defs4" />
  <metadata
     id="metadata7">
    <rdf:RDF>
      <cc:Work
         rdf:about="">
        <dc:format>image/svg+xml</dc:format>
        <dc:type
           rdf:resource="http://purl.org/dc/dcmitype/StillImage" />
        <dc:title />
      </cc:Work>
    </rdf:RDF>
  </metadata>
  <g
     inkscape:label="Layer 1"
     inkscape:groupmode="layer"
     id="layer1">
    <rect
       style="opacity:1;fill:#e3e3e3;fill-opacity:1;stroke:none;stroke-width:0.63016135;stroke-linecap:round;stroke-linejoin:round;stroke-miterlimit:4;stroke-dasharray:none;stroke-opacity:1"
       id="rect3336"
       width="32"
       height="32"
       x="54.617371"
       y="652.59753"
       inkscape:export-xdpi="180"
       inkscape:export-ydpi="180" />
    <path
       sodipodi:type="star"
       style="opacity:1;fill:#e3e3e3;fill-opacity:1;stroke:none;stroke-width:2.51220465;stroke-linecap:round;stroke-linejoin:round;stroke-miterlimit:4;stroke-dasharray:none;stroke-opacity:1"
       id="path4144"
       sodipodi:sides="15"
       sodipodi:cx="79.285713"
       sodipodi:cy="628.43365"
       sodipodi:r1="8.7863674"
       sodipodi:r2="6.1504574"
       sodipodi:arg1="0.9151007"
       sodipodi:arg2="1.1245402"
       inkscape:flatsided="false"
       inkscape:rounded="0"
       inkscape:randomized="0"
       d="m 84.642856,635.39794 -2.702659,-1.41615 -0.593121,2.993 -1.893002,-2.39298 -1.759205,2.49299 -0.75603,-2.95605 -2.621107,1.56193 0.511669,-3.00799 -3.029796,0.36079 1.690894,-2.53982 -2.914605,-0.90273 2.577748,-1.63249 -2.295453,-2.01016 3.018887,-0.4429 -1.279396,-2.77001 2.938033,0.82328 -0.04212,-3.05091 2.349166,1.94712 1.202439,-2.80428 1.354106,2.73427 2.239086,-2.07276 0.12491,3.04864 2.888574,-0.98284 -1.125885,2.83588 3.038602,0.27702 -2.182004,2.13277 2.663227,1.48898 -2.860834,1.06088 1.827357,2.44348 -3.045001,-0.19444 z"
       inkscape:transform-center-x="-0.025140682"
       inkscape:transform-center-y="-0.070962673" />
    <path
       sodipodi:type="star"
       style="opacity:1;fill:#e3e3e3;fill-opacity:1;stroke:none;stroke-width:2.51220465;stroke-linecap:round;stroke-linejoin:round;stroke-miterlimit:4;stroke-dasharray:none;stroke-opacity:1"
       id="path4146"
       sodipodi:sides="15"
       sodipodi:cx="102.32143"
       sodipodi:cy="628.79077"
       sodipodi:r1="15.291596"
       sodipodi:r2="10.704117"
       sodipodi:arg1="0.74409935"
       sodipodi:arg2="0.95353886"
       inkscape:flatsided="false"
       inkscape:rounded="0"
       inkscape:randomized="0"
       d="m 113.57143,639.14791 -5.05445,-1.62826 -0.1308,5.30863 -3.95519,-3.54333 -2.2787,4.79648 -2.172048,-4.84571 -4.032603,3.45497 -0.01333,-5.31023 -5.089229,1.51607 2.147683,-4.85656 -5.265881,-0.68498 3.937346,-3.56315 -4.532014,-2.76759 5.046207,-1.65363 -3.014522,-4.37166 5.282533,0.54181 -0.97579,-5.21982 4.60546,2.64357 1.231664,-5.16544 3.132059,4.28823 3.22616,-4.2179 1.1171,5.19142 4.66281,-2.54105 -1.09102,5.19696 5.29323,-0.42482 -3.11049,4.3039 5.00839,1.76485 -4.59212,2.66667 3.85756,3.64937 -5.27974,0.56833 z"
       inkscape:transform-center-x="-0.017679714"
       inkscape:transform-center-y="0.14948595" />
  </g>
  <g
     transform="matrix(0.26867131,0,0,0.26867131,77.027935,661.60885)"
     inkscape:label="Gear8"
     id="g5661"
     style="fill:#aeaeae;fill-opacity:1"
     inkscape:export-xdpi="180"
     inkscape:export-ydpi="180">
    <path
       inkscape:connector-curvature="0"
       d="m 18.67401,-4.00471 4.72309,-1.01288 1.57839,0.04966 6.80888,3.24589 0,3.44408 -6.80888,3.24589 -1.57839,0.04966 -4.72309,-1.01288 -2.63774,6.36805 4.05596,2.62351 1.08097,1.15121 2.51941,7.1098 -2.43533,2.43533 -7.1098,-2.51941 -1.15121,-1.08097 -2.62351,-4.05596 -6.36805,2.63774 1.01288,4.72309 -0.04966,1.57839 -3.24589,6.80888 -3.44408,0 -3.24589,-6.80888 -0.04966,-1.57839 1.01288,-4.72309 -6.36805,-2.63774 -2.62351,4.05596 -1.15121,1.08097 -7.1098,2.51941 -2.43533,-2.43533 2.51941,-7.1098 1.08097,-1.15121 4.05596,-2.62351 -2.63774,-6.36805 -4.72309,1.01288 -1.57839,-0.04966 -6.80888,-3.24589 0,-3.44408 6.80888,-3.24589 1.57839,-0.04966 4.72309,1.01288 2.63774,-6.36805 -4.05596,-2.62351 -1.08097,-1.15121 -2.51941,-7.1098 2.43533,-2.43533 7.1098,2.51941 1.15121,1.08097 2.62351,4.05596 6.36805,-2.63774 -1.01288,-4.72309 0.04966,-1.57839 3.24589,-6.80888 3.44408,0 3.24589,6.80888 0.04966,1.57839 -1.01288,4.72309 6.36805,2.63774 2.62351,-4.05596 1.15121,-1.08097 7.1098,-2.51941 2.43533,2.43533 -2.51941,7.1098 -1.08097,1.15121 -4.05596,2.62351 z"
       style="fill:#aeaeae;stroke:#000000;stroke-width:1;fill-opacity:1"
       id="path5663" />
    <circle
       r="7.4000001"
       cy="0"
       cx="0"
       style="fill:#aeaeae;stroke:#000000;stroke-width:1;fill-opacity:1"
       id="path5665" />
  </g>
  <g
     id="g5839"
     inkscape:label="Gear11"
     transform="matrix(0.25225727,0,0,0.25225727,65.850768,673.67789)"
     style="fill:#aeaeae;fill-opacity:1"
     inkscape:export-xdpi="180"
     inkscape:export-ydpi="180">
    <path
       id="path5841"
       style="fill:#aeaeae;stroke:#000000;stroke-width:1;fill-opacity:1"
       d="m 28.29238,-4.49918 4.2018,-0.66819 2.16351,0.18435 6.67771,3.05616 0,3.85372 -6.67771,3.05616 -2.16351,0.18435 -4.2018,-0.66819 -2.05887,7.01188 3.89602,1.70955 1.7204,1.32477 3.96536,6.18125 -2.08348,3.24195 -7.26993,-1.03923 -1.91973,-1.0146 -3.17353,-2.83378 -5.52294,4.78566 2.3533,3.54451 0.73106,2.04458 -0.006,7.34383 -3.50547,1.6009 -5.554,-4.80468 L 8.79816,31.70435 7.66048,27.60469 0.42696,28.64471 0.49037,32.89883 0,35.01409 l -3.97539,6.1748 -3.8145,-0.54845 -2.07472,-7.04467 0.12543,-2.16773 1.25936,-4.06393 -6.64749,-3.03581 -2.24661,3.61307 -1.55612,1.51435 -6.68267,3.04532 -2.91244,-2.52366 2.06327,-7.04803 1.27748,-1.7558 3.25657,-2.73793 -3.95095,-6.1478 -3.84334,1.8249 -2.12781,0.43266 -7.26824,-1.05104 -1.08571,-3.69762 5.54619,-4.8137 2.02394,-0.78641 4.21984,-0.54266 0,-7.3079 -4.21984,-0.54266 -2.02394,-0.78641 -5.54619,-4.8137 1.08571,-3.69762 7.26824,-1.05104 2.12781,0.43266 3.84334,1.8249 3.95095,-6.1478 -3.25657,-2.73793 -1.27748,-1.7558 -2.06327,-7.04803 2.91244,-2.52366 6.68267,3.04532 1.55612,1.51435 2.24661,3.61307 6.64749,-3.03581 -1.25936,-4.06393 -0.12543,-2.16773 2.07472,-7.04467 3.8145,-0.54845 3.97539,6.1748 0.49037,2.11526 -0.06341,4.25412 7.23352,1.04002 1.13768,-4.09966 1.06645,-1.89142 5.554,-4.80468 3.50547,1.6009 0.006,7.34383 -0.73106,2.04458 -2.3533,3.54451 5.52294,4.78566 3.17353,-2.83378 1.91973,-1.0146 7.26993,-1.03923 2.08348,3.24195 -3.96536,6.18125 -1.7204,1.32477 -3.89602,1.70955 z"
       inkscape:connector-curvature="0" />
    <circle
       id="path5843"
       style="fill:#aeaeae;stroke:#000000;stroke-width:1;fill-opacity:1"
       cx="0"
       cy="0"
       r="7.4000001" />
  </g>
</svg>
